<svg width="209" height="189" viewBox="0 0 209 189" fill="none" xmlns="http://www.w3.org/2000/svg">
<path d="M16 5H193C199.075 5 204 9.92487 204 16V94.5C204 143.929 163.929 184 114.5 184H94.5C45.0705 184 5 143.929 5 94.5V16C5 9.92486 9.92487 5 16 5Z" fill="#CBC980" stroke="#486200" stroke-width="10"/>
<mask id="path-2-outside-1_0_1" maskUnits="userSpaceOnUse" x="34.1161" y="33.0502" width="49" height="80" fill="black">
<rect fill="white" x="34.1161" y="33.0502" width="49" height="80"/>
<path fill-rule="evenodd" clip-rule="evenodd" d="M74.0661 41.1975C73.8706 41.0011 73.5528 41.0011 73.3573 41.1975L42.4087 72.2912V72.2912C42.0186 72.6832 42.0186 73.3168 42.4087 73.7088V73.7088L73.3573 104.803C73.5528 104.999 73.8706 104.999 74.0661 104.803V104.803C74.2602 104.607 74.2602 104.292 74.0661 104.097L44.5185 74.4109C43.7418 73.6306 43.7418 72.3694 44.5185 71.5891L74.0661 41.9029C74.2602 41.7078 74.2602 41.3925 74.0661 41.1975V41.1975Z"/>
</mask>
<path fill-rule="evenodd" clip-rule="evenodd" d="M74.0661 41.1975C73.8706 41.0011 73.5528 41.0011 73.3573 41.1975L42.4087 72.2912V72.2912C42.0186 72.6832 42.0186 73.3168 42.4087 73.7088V73.7088L73.3573 104.803C73.5528 104.999 73.8706 104.999 74.0661 104.803V104.803C74.2602 104.607 74.2602 104.292 74.0661 104.097L44.5185 74.4109C43.7418 73.6306 43.7418 72.3694 44.5185 71.5891L74.0661 41.9029C74.2602 41.7078 74.2602 41.3925 74.0661 41.1975V41.1975Z" fill="#CBC980"/>
<path d="M74.0661 41.9029L68.396 36.2593L74.0661 41.9029ZM74.0661 104.097L68.396 109.741L74.0661 104.097ZM73.3573 104.803L79.0274 99.1589L73.3573 104.803ZM44.5185 74.4109L50.1885 68.7673L44.5185 74.4109ZM44.5185 71.5891L38.8484 65.9455L44.5185 71.5891ZM73.3573 41.1975L79.0274 46.8411L79.0274 46.8411L73.3573 41.1975ZM48.0788 77.9349L79.0274 46.8411L67.6873 35.5539L36.7386 66.6476L48.0788 77.9349ZM79.0274 99.1589L48.0788 68.0652L36.7386 79.3524L67.6873 110.446L79.0274 99.1589ZM38.8484 80.0545L68.396 109.741L79.7361 98.4535L50.1885 68.7673L38.8484 80.0545ZM68.396 36.2593L38.8484 65.9455L50.1885 77.2327L79.7362 47.5465L68.396 36.2593ZM79.7362 47.5465C83.0369 44.2303 83.0369 38.8701 79.7361 35.5539L68.396 46.8411C65.4836 43.915 65.4836 39.1854 68.396 36.2593L79.7362 47.5465ZM79.7362 110.446C83.0369 107.13 83.0369 101.77 79.7361 98.4535L68.396 109.741C65.4836 106.815 65.4836 102.085 68.396 99.1589L79.7362 110.446ZM67.6873 110.446C71.0099 113.784 76.4135 113.784 79.7362 110.446L68.396 99.1589C71.3277 96.2134 76.0956 96.2134 79.0274 99.1589L67.6873 110.446ZM36.7386 66.6477C33.2419 70.1608 33.2419 75.8392 36.7386 79.3524L48.0788 68.0652C50.7952 70.7944 50.7952 75.2057 48.0788 77.9348L36.7386 66.6477ZM50.1885 68.7673C52.5185 71.1082 52.5185 74.8919 50.1885 77.2327L38.8484 65.9455C34.9652 69.8469 34.9652 76.1531 38.8484 80.0545L50.1885 68.7673ZM79.0274 46.8411C76.0957 49.7866 71.3278 49.7866 68.396 46.8411L79.7361 35.5539C76.4135 32.2156 71.0099 32.2157 67.6873 35.5539L79.0274 46.8411Z" fill="#486200" mask="url(#path-2-outside-1_0_1)"/>
<mask id="path-4-outside-2_0_1" maskUnits="userSpaceOnUse" x="123.903" y="67.949" width="49" height="80" fill="black">
<rect fill="white" x="123.903" y="67.949" width="49" height="80"/>
<path fill-rule="evenodd" clip-rule="evenodd" d="M164.61 108.71V108.71C165 108.317 165 107.683 164.61 107.29V107.29L133.735 76.1987C133.539 76.0018 133.221 76.0018 133.025 76.1987V76.1987C132.832 76.3936 132.832 76.7083 133.025 76.9033L162.506 106.591C163.281 107.371 163.281 108.629 162.506 109.409L133.025 139.097C132.832 139.292 132.832 139.606 133.025 139.801V139.801C133.221 139.998 133.539 139.998 133.735 139.801L164.61 108.71Z"/>
</mask>
<path fill-rule="evenodd" clip-rule="evenodd" d="M164.61 108.71V108.71C165 108.317 165 107.683 164.61 107.29V107.29L133.735 76.1987C133.539 76.0018 133.221 76.0018 133.025 76.1987V76.1987C132.832 76.3936 132.832 76.7083 133.025 76.9033L162.506 106.591C163.281 107.371 163.281 108.629 162.506 109.409L133.025 139.097C132.832 139.292 132.832 139.606 133.025 139.801V139.801C133.221 139.998 133.539 139.998 133.735 139.801L164.61 108.71Z" fill="#CBC980"/>
<path d="M133.025 139.097L127.349 133.46L133.025 139.097ZM133.025 76.9033L127.349 82.5404L133.025 76.9033ZM133.735 76.1987L128.058 81.8357L133.735 76.1987ZM162.506 109.409L168.183 115.046L162.506 109.409ZM128.058 81.8357L158.934 112.927L170.287 101.653L139.412 70.5616L128.058 81.8357ZM168.183 100.954L138.702 71.2662L127.349 82.5404L156.83 112.228L168.183 100.954ZM138.702 144.734L168.183 115.046L156.83 103.772L127.349 133.46L138.702 144.734ZM158.934 103.072L128.058 134.164L139.412 145.438L170.287 114.347L158.934 103.072ZM127.349 145.438C130.673 148.786 136.087 148.786 139.412 145.438L128.058 134.164C130.992 131.211 135.769 131.211 138.702 134.164L127.349 145.438ZM127.349 133.46C124.057 136.774 124.057 142.124 127.349 145.438L138.702 134.164C141.606 137.089 141.606 141.809 138.702 144.734L127.349 133.46ZM127.349 70.5616C124.057 73.8762 124.057 79.2258 127.349 82.5404L138.702 71.2662C141.606 74.1909 141.606 78.9111 138.702 81.8357L127.349 70.5616ZM139.412 70.5616C136.087 67.2141 130.673 67.2141 127.349 70.5616L138.702 81.8357C135.769 84.7894 130.992 84.7894 128.058 81.8357L139.412 70.5616ZM156.83 112.228C154.506 109.888 154.506 106.112 156.83 103.772L168.183 115.046C172.055 111.147 172.055 104.853 168.183 100.954L156.83 112.228ZM170.287 114.347C173.775 110.834 173.775 105.166 170.287 101.653L158.934 112.927C156.226 110.201 156.226 105.799 158.934 103.072L170.287 114.347Z" fill="#486200" mask="url(#path-4-outside-2_0_1)"/>
</svg>
